<svg xmlns="http://www.w3.org/2000/svg" id="Camada_2" x="0" y="0" version="1.1" viewBox="0 0 384.6 115.3" xml:space="preserve">
  <defs/>
  <style>
    .st0{fill:#ea4335}.st2{fill:#4285f4}.st6{fill:#6e6e6e}
  </style>
  <g id="g4567" transform="matrix(1.1126 0 0 1.1126 -.4 -.523)">
    <path id="path2" d="M191.8 51c0 12.8-10 22.2-22.2 22.2-12.3 0-22.2-9.4-22.2-22.2 0-12.9 10-22.2 22.2-22.2s22.2 9.3 22.2 22.2zm-9.7 0c0-8-5.8-13.4-12.5-13.4s-12.5 5.5-12.5 13.4 5.8 13.4 12.5 13.4 12.5-5.5 12.5-13.4z" class="st0"/>
    <path id="path4" fill="#fbbc05" d="M239.8 51c0 12.8-10 22.2-22.2 22.2-12.3 0-22.2-9.4-22.2-22.2 0-12.8 10-22.2 22.2-22.2s22.2 9.3 22.2 22.2zm-9.7 0c0-8-5.8-13.4-12.5-13.4S205.1 43 205.1 51c0 7.9 5.8 13.4 12.5 13.4s12.5-5.5 12.5-13.4z"/>
    <path id="path6" d="M285.8 30.1V70c0 16.4-9.7 23.1-21.1 23.1-10.8 0-17.2-7.2-19.7-13.1l8.5-3.5c1.5 3.6 5.2 7.9 11.2 7.9 7.3 0 11.8-4.5 11.8-13v-3.2h-.3c-2.2 2.7-6.4 5-11.7 5-11.1 0-21.2-9.7-21.2-22.1 0-12.5 10.2-22.3 21.2-22.3 5.3 0 9.5 2.4 11.7 5h.3v-3.6l9.3-.1zm-8.5 21c0-7.8-5.2-13.5-11.8-13.5-6.7 0-12.4 5.7-12.4 13.5 0 7.7 5.6 13.4 12.4 13.4 6.5-.1 11.8-5.7 11.8-13.4z" class="st2"/>
    <path id="path8" fill="#34a853" d="M301.1 6.8v65h-9.5v-65h9.5z"/>
    <path id="path10" d="M338.1 58.3l7.6 5c-2.4 3.6-8.3 9.8-18.5 9.8-12.6 0-22-9.7-22-22.2 0-13.2 9.5-22.2 20.9-22.2 11.5 0 17.1 9.2 19 14.1l1 2.5-29.6 12.3c2.3 4.4 5.8 6.7 10.8 6.7 4.8.1 8.3-2.3 10.8-6zm-23.3-8l19.8-8.2c-1.1-2.8-4.4-4.7-8.2-4.7-4.9 0-11.8 4.3-11.6 12.9z" class="st0"/>
    <path id="path12" d="M111.4 45.2v-9.4h31.7c.3 1.6.5 3.6.5 5.7 0 7.1-1.9 15.8-8.1 22-6.1 6.3-13.8 9.7-24 9.7-19 0-34.9-15.5-34.9-34.4s16-34.4 34.9-34.4c10.5 0 18 4.1 23.6 9.5l-6.6 6.6c-4-3.8-9.5-6.7-17-6.7-13.9 0-24.7 11.2-24.7 25s10.8 25 24.7 25c9 0 14.1-3.6 17.4-6.9 2.7-2.7 4.4-6.5 5.1-11.6l-22.6-.1z" class="st2"/>
  </g>
  <path id="path2400" fill="#34a853" fill-rule="evenodd" d="M67.2 11.7c2.3 29.4-10.2 52.8-32.9 67-.5.4-.7.3-1.3 0C10.5 64.5-2 41.1.3 11.7c24.5-6.2 43.5-6.3 66.9 0z" clip-rule="evenodd"/>
  <path fill="#fff" d="M15.5 43.5l6.2-6.2 7 7.7 24.4-23 5.5 6L29 57.1z"/>
  <path d="M94.1 105.1l2.3-.2c.1.9.4 1.7.8 2.3.4.6 1 1.1 1.9 1.4.8.4 1.8.6 2.9.6.9 0 1.8-.1 2.5-.4s1.3-.7 1.6-1.1c.4-.5.5-1 .5-1.6 0-.6-.2-1.1-.5-1.5-.3-.4-.9-.8-1.7-1.1-.5-.2-1.6-.5-3.3-.9-1.7-.4-2.9-.8-3.6-1.2-.9-.5-1.6-1-2-1.7-.4-.7-.7-1.5-.7-2.3 0-.9.3-1.8.8-2.6s1.3-1.4 2.3-1.9 2.2-.6 3.4-.6c1.4 0 2.6.2 3.7.7 1.1.4 1.9 1.1 2.4 2s.9 1.8.9 2.9l-2.4.2c-.1-1.2-.6-2.1-1.3-2.7-.7-.6-1.8-.9-3.2-.9-1.5 0-2.6.3-3.3.8-.7.5-1 1.2-1 2 0 .7.2 1.2.7 1.7.5.4 1.7.9 3.7 1.3 2 .5 3.4.8 4.1 1.2 1.1.5 1.9 1.1 2.4 1.9.5.8.8 1.6.8 2.6s-.3 1.9-.9 2.8c-.6.9-1.4 1.6-2.4 2-1.1.5-2.3.7-3.6.7-1.7 0-3.1-.2-4.2-.7-1.1-.5-2-1.2-2.7-2.2-.5-1.2-.9-2.3-.9-3.5zM112 111V92.4h2.5V111H112zM122.8 111V94.6h-6.1v-2.2h14.8v2.2h-6.2V111h-2.5zM133.3 111V92.4h13.5v2.2h-11v5.7H146v2.2h-10.3v6.3h11.4v2.2h-13.8zM155.5 105.1l2.3-.2c.1.9.4 1.7.8 2.3.4.6 1 1.1 1.9 1.4.8.4 1.8.6 2.9.6.9 0 1.8-.1 2.5-.4s1.3-.7 1.6-1.1c.4-.5.5-1 .5-1.6 0-.6-.2-1.1-.5-1.5-.3-.4-.9-.8-1.7-1.1-.5-.2-1.6-.5-3.3-.9-1.7-.4-2.9-.8-3.6-1.2-.9-.5-1.6-1-2-1.7-.4-.7-.7-1.5-.7-2.3 0-.9.3-1.8.8-2.6s1.3-1.4 2.3-1.9 2.2-.6 3.4-.6c1.4 0 2.6.2 3.7.7 1.1.4 1.9 1.1 2.4 2s.9 1.8.9 2.9l-2.4.2c-.1-1.2-.6-2.1-1.3-2.7-.7-.6-1.8-.9-3.2-.9-1.5 0-2.6.3-3.3.8-.7.5-1 1.2-1 2 0 .7.2 1.2.7 1.7.5.4 1.7.9 3.7 1.3 2 .5 3.4.8 4.1 1.2 1.1.5 1.9 1.1 2.4 1.9.5.8.8 1.6.8 2.6s-.3 1.9-.9 2.8c-.6.9-1.4 1.6-2.4 2-1.1.5-2.3.7-3.6.7-1.7 0-3.1-.2-4.2-.7-1.1-.5-2-1.2-2.7-2.2-.5-1.2-.9-2.3-.9-3.5zM173 111V92.4h13.5v2.2h-11v5.7h10.3v2.2h-10.3v6.3h11.4v2.2H173zM198.3 103.7v-2.2h7.9v6.9c-1.2 1-2.5 1.7-3.7 2.2-1.3.5-2.6.7-4 .7-1.8 0-3.5-.4-5-1.2-1.5-.8-2.6-1.9-3.4-3.4s-1.1-3.1-1.1-5c0-1.8.4-3.5 1.1-5.1.8-1.6 1.8-2.7 3.3-3.5s3.1-1.1 4.9-1.1c1.3 0 2.6.2 3.6.7 1.1.4 1.9 1 2.6 1.8s1.1 1.8 1.4 3l-2.2.6c-.3-.9-.6-1.7-1-2.2s-1-1-1.8-1.3c-.8-.3-1.6-.5-2.6-.5-1.1 0-2.1.2-2.9.5-.8.3-1.5.8-2 1.4-.5.6-.9 1.2-1.2 1.8-.5 1.2-.7 2.4-.7 3.7 0 1.7.3 3 .9 4.2.6 1.1 1.4 1.9 2.5 2.5s2.3.8 3.5.8c1.1 0 2.1-.2 3.1-.6 1-.4 1.8-.8 2.3-1.3v-3.5h-5.5zM221.3 92.4h2.5v10.8c0 1.9-.2 3.4-.6 4.5s-1.2 2-2.3 2.7c-1.1.7-2.6 1-4.3 1-1.7 0-3.2-.3-4.3-.9s-1.9-1.5-2.4-2.6-.7-2.7-.7-4.7V92.4h2.5v10.7c0 1.6.2 2.8.5 3.6.3.8.8 1.4 1.5 1.8.7.4 1.6.6 2.7.6 1.8 0 3.1-.4 3.9-1.2s1.2-2.4 1.2-4.7V92.4zM227.1 111V92.4h8.3c1.7 0 2.9.2 3.8.5.9.3 1.6.9 2.1 1.8s.8 1.8.8 2.8c0 1.3-.4 2.4-1.3 3.3s-2.2 1.5-4 1.7c.7.3 1.1.6 1.5.9.7.7 1.4 1.5 2 2.5l3.2 5.1h-3.1l-2.5-3.9c-.7-1.1-1.3-2-1.8-2.6s-.9-1-1.3-1.2c-.4-.2-.7-.4-1.1-.5-.3-.1-.7-.1-1.4-.1h-2.9v8.3h-2.3zm2.5-10.4h5.3c1.1 0 2-.1 2.6-.3.6-.2 1.1-.6 1.4-1.1.3-.5.5-1.1.5-1.7 0-.9-.3-1.6-1-2.2-.6-.6-1.6-.9-3-.9h-5.9v6.2zM244.4 102c0-3.1.8-5.5 2.5-7.3 1.7-1.7 3.8-2.6 6.4-2.6 1.7 0 3.3.4 4.6 1.2s2.4 2 3.2 3.4c.7 1.5 1.1 3.1 1.1 5s-.4 3.6-1.1 5.1-1.8 2.6-3.2 3.4c-1.4.8-2.9 1.1-4.5 1.1-1.8 0-3.3-.4-4.7-1.3s-2.4-2-3.1-3.5-1.2-2.9-1.2-4.5zm2.5 0c0 2.2.6 4 1.8 5.3 1.2 1.3 2.7 1.9 4.5 1.9 1.9 0 3.4-.7 4.6-2 1.2-1.3 1.8-3.2 1.8-5.5 0-1.5-.3-2.8-.8-4-.5-1.1-1.3-2-2.2-2.6-1-.6-2.1-.9-3.3-.9-1.7 0-3.2.6-4.5 1.8-1.2 1.2-1.9 3.2-1.9 6z" class="st6"/>
</svg>
