<?xml version="1.0" encoding="utf-8"?>
<!-- Generator: Adobe Illustrator 25.0.0, SVG Export Plug-In . SVG Version: 6.00 Build 0)  -->
<svg version="1.1" id="Camada_1" xmlns="http://www.w3.org/2000/svg" xmlns:xlink="http://www.w3.org/1999/xlink" x="0px" y="0px"
	 viewBox="0 0 544.1 252.4" style="enable-background:new 0 0 544.1 252.4;" xml:space="preserve">
<style type="text/css">
	.st0{clip-path:url(#SVGID_1_);}
	.st1{fill:#9E9E9E;}
	.st2{fill:#898989;}
</style>
<g>
	<defs>
		<rect id="SVGID_3_" x="37.6" y="32.1" width="466.5" height="194.1"/>
	</defs>
	<clipPath id="SVGID_1_">
		<use xlink:href="#SVGID_3_"  style="overflow:visible;"/>
	</clipPath>
	<g id="g8" transform="matrix(3.0547239,0,0,3.0547239,85.766383,175.88074)" class="st0">
		<path id="path2" class="st1" d="M89.7-31.3c-4,0-6.6,1.5-9,5.3c-1.7-4.2-4.9-5.3-7.9-5.3c-2.3,0-5.4,0.7-7.1,3.9l-0.4-2.2
			c-0.1-0.6-0.6-1-1.2-1h-4.7c-0.7,0-1.2,0.5-1.2,1.2v26.1c0,0.7,0.5,1.2,1.2,1.2h5.6c0.7,0,1.2-0.5,1.2-1.2v-14
			c0-3.2,1.6-6.3,4.7-6.3c3.2,0,4.7,2.5,4.7,6.2v14.1c0,0.7,0.5,1.2,1.2,1.2h5.5c0.7,0,1.2-0.5,1.2-1.2v-14.1c0-3.2,1.5-6.1,4.6-6.1
			c3.2,0,4.6,2.4,4.6,5.9v14.2c0,0.7,0.5,1.2,1.2,1.2h5.6c0.7,0,1.2-0.5,1.2-1.2v-14.4C100.5-28.3,95.3-31.3,89.7-31.3L89.7-31.3z
			 M39.4-31.5c-3.4,0-6.5,1.1-9,4.1v-15.7c0-0.7-0.5-1.2-1.2-1.2h-6c-0.7,0-1.2,0.5-1.2,1.2v39.7c0,0.7,0.5,1.2,1.2,1.2h5.2
			c0.6,0,1.1-0.4,1.2-1L30-5.8c2.7,3.4,5.9,4.3,9.5,4.3c8.4,0,14.1-6,14.1-14.9C53.6-25.8,47.8-31.5,39.4-31.5L39.4-31.5z M38.5-9.2
			c-4.1,0-7.4-3.3-7.4-7.4s3.3-7.4,7.4-7.4c4.1,0,7.4,3.3,7.4,7.4C45.9-12.5,42.6-9.2,38.5-9.2z M84.3-44.8c-1.2,0-2.1,0.6-2.5,1.2
			v-3.3c0-0.1-0.1-0.2-0.2-0.2h-1.3c-0.1,0-0.2,0.1-0.2,0.2v9.9c0,0.1,0.1,0.2,0.2,0.2h1.2c0.1,0,0.2-0.1,0.2-0.2V-38
			c0.5,0.8,1.5,1.3,2.6,1.3c2.3,0,3.6-1.9,3.6-4C87.9-42.9,86.6-44.8,84.3-44.8L84.3-44.8z M83.9-38.3c-1.3,0-2.2-1.1-2.2-2.5
			s0.8-2.5,2.2-2.5c1.3,0,2.2,1.1,2.2,2.5C86.1-39.3,85.3-38.3,83.9-38.3z M103.3-44.8c-1.3,0-2.1,0.6-2.4,1.2v-0.7
			c0-0.1-0.1-0.2-0.2-0.2h-1.2c-0.1,0-0.2,0.1-0.2,0.2v7.5c0,0.1,0.1,0.2,0.2,0.2h1.3c0.1,0,0.2-0.1,0.2-0.2v-4.4
			c0-1.2,0.7-1.9,1.8-1.9c0.8,0,1.5,0.7,1.5,1.6v4.8c0,0.1,0.1,0.2,0.2,0.2h1.3c0.1,0,0.2-0.1,0.2-0.2v-4.8
			C106.2-43.5,105.2-44.8,103.3-44.8L103.3-44.8z M111.6-43.2c0.9,0,1.6,0.5,1.8,1.2v0.1c0,0.1,0.1,0.2,0.2,0.2h1.3
			c0.1,0,0.2-0.1,0.2-0.2c0,0,0-0.4-0.3-1V-43l-0.1-0.1c0-0.1-0.1-0.1-0.1-0.1c-0.3-0.4-0.6-0.8-1.1-1c-0.6-0.4-1.3-0.6-2.1-0.6
			c-2.3,0-3.9,1.8-3.9,4c0,2.2,1.6,4,3.9,4c0.8,0,1.6-0.2,2.1-0.6c0,0,0.6-0.3,1.1-1c0,0,0-0.1,0.1-0.1l0.1-0.1v-0.1
			c0.3-0.6,0.3-1,0.3-1c0-0.1-0.1-0.2-0.2-0.2h-1.3c-0.1,0-0.2,0.1-0.2,0.2v0.1c-0.3,0.7-0.9,1.2-1.8,1.2c-1.3,0-2.1-1-2.1-2.5
			C109.5-42.1,110.4-43.2,111.6-43.2L111.6-43.2z M120.5-44.8c-2.5,0-4,1.9-4,4c0,2.2,1.6,4,4,4c2.5,0,4.1-1.9,4.1-4
			C124.6-42.9,123-44.8,120.5-44.8z M120.5-38.3c-1.3,0-2.2-1-2.2-2.5c0-1.5,0.9-2.5,2.2-2.5c1.3,0,2.3,1,2.3,2.5
			C122.8-39.2,121.8-38.3,120.5-38.3z M96.8-44.6h-1.2c-0.1,0-0.2,0.1-0.2,0.2v0.9c-0.5-0.8-1.4-1.3-2.6-1.3c-2.3,0-3.6,1.9-3.6,4
			c0,2.2,1.3,4,3.6,4c1.2,0,2.1-0.4,2.6-1.3v1.1c0,0.1,0.1,0.2,0.2,0.2h1.2c0.1,0,0.2-0.1,0.2-0.2v-7.5C97-44.5,97-44.6,96.8-44.6z
			 M93.1-38.3c-1.3,0-2.2-1.1-2.2-2.5c0-1.4,0.8-2.5,2.2-2.5c1.3,0,2.2,1.1,2.2,2.5C95.3-39.3,94.5-38.3,93.1-38.3z"/>
		<path id="path4" class="st2" d="M-1.7-28.6c0-1.4,1.3-2.5,2.7-2.3c7.5,1.1,13.2,7.6,13.2,15.4C14.2-3.2,4.5-0.5,0.2,0
			c-1,0.1-1.9-0.7-1.9-1.7V-28.6z"/>
		<path id="path6" class="st1" d="M-14-14.5h7c3,0,5.4-2.4,5.4-5.4V-44c0-1-0.8-1.7-1.7-1.7h-3.2c-5,0-9.1,4.1-9.1,9.1v20.4
			C-15.8-15.3-15-14.5-14-14.5z M130.1-6c4.2-2.2,6.1-6.1,6.3-10.3c0-3.5-0.9-6.4-2.5-8.7l2.7-3.1c0.4-0.5,0.3-1.3-0.2-1.7l-4.3-3.3
			c-0.6-0.4-1.3-0.3-1.7,0.2l-2.3,3c-2.3-1-4.8-1.6-7.3-1.6c-8.2,0-15.8,5-15.8,15c0,9.1,6.3,14.9,15.9,14.9c5.3,0,7.1,2.2,7.1,5
			c0,3.6-3.5,5.4-7.3,5.4c-3.6,0-6.6-1.2-7.3-5c-0.1-0.6-0.6-1-1.2-1h-5.6c-0.7,0-1.2,0.6-1.2,1.3c0.4,7.7,5.6,12.2,15.3,12.2
			c8,0,15.9-4.2,15.9-13C136.7,1.8,136.7-3,130.1-6L130.1-6z M120.8-9.2c-4.1,0-7.3-3.3-7.3-7.3c0-4.1,3.3-7.3,7.3-7.3
			c4,0,7.3,3.3,7.3,7.3C128.1-12.5,124.8-9.2,120.8-9.2z"/>
	</g>
</g>
</svg>
