<?xml version="1.0" encoding="utf-8"?>
<!-- Generator: Adobe Illustrator 25.0.0, SVG Export Plug-In . SVG Version: 6.00 Build 0)  -->
<svg version="1.1" id="Camada_1" xmlns="http://www.w3.org/2000/svg" xmlns:xlink="http://www.w3.org/1999/xlink" x="0px" y="0px"
	 viewBox="0 0 544.1 446.1" style="enable-background:new 0 0 544.1 446.1;" xml:space="preserve">
<style type="text/css">
	.st0{fill:#A5A5A5;}
</style>
<path class="st0" d="M289.4,276.7L263,291.9v97.5l28.4,0c2.8,0,5.1-2.3,5.1-5.1v-104C296.4,276.3,292.6,274.9,289.4,276.7z
	 M251,137.4c-19.6,0-41,1.8-62.1,5.4c21.4-27.5,55.4-45.2,93.2-45.2c27.9,0,55.9,10.5,74.7,26.2c3.4,2.8,6,3.1,8.6,0.5
	c2.6-2.6,2.3-5.1-0.5-8.5c-24.5-28.5-60.6-47.8-103.1-47c-55.6,1-102.9,36.2-120.9,85c-16.5,5.1-31.6,11.3-44.9,18.8
	c-3.7,2.1-5,4.6-3.7,7.7c1.3,2.8,3.9,3.9,7.6,2.8c11.5-3.3,23.2-6.2,35.5-8.7c-1.3,6.4-2.1,13.1-2.1,20c-1,45,23,87.6,60.1,111
	c3.7,2.3,6.8,2.3,8.9-0.5c2.1-2.8,1.8-5.4-1.3-8.2c-23.5-21.1-36.6-52.4-36.6-83.5c0-15.7,3.1-30.8,9.1-44.4
	c12.3-1,25.6-1.8,40.2-1.8c95,0,175.2,31.3,175.2,72.4c0,20.8-26.4,41.6-57.7,55.5c-7.6,3.3-8.4,5.6-7.3,9c1,3.1,4.4,4.1,8.4,2.8
	c54.8-18,96.4-47.5,96.4-83.2C428.6,174.9,350.3,137.4,251,137.4L251,137.4z M230.8,314.2v71.9c0,1.8,1.5,3.3,3.3,3.3h20V297
	l-20,11.5C232,309.7,230.8,311.5,230.8,314.2L230.8,314.2z"/>
</svg>
