<?xml version="1.0" encoding="utf-8"?>
<!-- Generator: Adobe Illustrator 25.0.0, SVG Export Plug-In . SVG Version: 6.00 Build 0)  -->
<svg version="1.1" id="Camada_1" xmlns="http://www.w3.org/2000/svg" xmlns:xlink="http://www.w3.org/1999/xlink" x="0px" y="0px"
	 viewBox="0 0 544.1 252.4" style="enable-background:new 0 0 544.1 252.4;" xml:space="preserve">
<style type="text/css">
	.st0{fill:#9E9E9E;}
</style>
<g id="g88">
	<path id="path94" class="st0" d="M267.4,116.8c7.6-3.7,12.3-11.2,12.3-20.4c0-6.8-2.2-12.4-6.5-16.6c-4.2-4.4-9.8-6.6-16.5-6.6H229
		c-0.2,0-0.4,0.2-0.4,0.4v95.1c0,0.2,0.2,0.4,0.4,0.4h31.4c7.3,0,13.4-2.6,18.4-7.6c5-5.1,7.5-11.3,7.5-18.5
		C286.3,130.1,279,120.1,267.4,116.8 M232.1,76.8h24.6c11.5,0,19.5,8.1,19.5,19.6c0,5.6-1.8,10.2-5.5,13.9c-3.5,3.5-8.3,5.4-14,5.4
		h-24.6L232.1,76.8z M276.1,159.1c-4.2,4.3-9.5,6.5-15.7,6.5h-28.3v-46.5h27.1c6.9,0,12.5,2.2,16.9,6.7c4.4,4.3,6.6,10.1,6.6,17.2
		C282.7,149.4,280.6,154.7,276.1,159.1"/>
	<path id="path96" class="st0" d="M78.4,138.5c-3.4,2.9-7.3,4.4-11.8,4.4c-5.7,0-10.4-2-13.9-6c-3.6-4-5.3-9.2-5.3-15.7
		c0-6.5,1.8-11.7,5.3-15.7c3.5-4,8.2-6,14-6c4.2,0,8,1.3,11.4,4c3.4,2.6,5.8,6.1,7.2,10.4h32.9c-1.7-13.1-7.3-23.7-16.8-31.8
		C91.8,74,80.2,70,66.5,70c-10.2,0-19.4,2.2-27.5,6.6C30.8,80.9,24.4,87,19.9,94.9c-4.6,7.8-6.9,16.6-6.9,26.3
		c0,9.7,2.3,18.5,6.9,26.3c4.6,7.8,10.9,13.9,19.1,18.3c8.2,4.4,17.3,6.6,27.5,6.6c14,0,25.7-4.2,35.3-12.6
		c9.6-8.4,15.1-19.3,16.6-32.9H85C84,131.7,81.7,135.6,78.4,138.5"/>
	<path id="path98" class="st0" d="M196.9,111.8c-6.5-6.1-14.9-9.2-25.1-9.2c-1.1,0-2.5,0-4.3,0.1l18.2-29.6l-32.4,0l-15.4,25.1
		c-4.3,7.1-7.6,13.7-9.6,19.6c-2.1,6-3.1,11.9-3.1,17.9c0,10.8,3.8,19.6,11.3,26.4c7.6,6.8,17.4,10.2,29.5,10.2
		c12.2,0,22.1-3.4,29.5-10.2c7.5-6.8,11.2-15.7,11.2-26.8C206.6,125.8,203.4,117.9,196.9,111.8 M175,144.6c-2.3,2.3-5.4,3.5-9.1,3.5
		c-3.7,0-6.8-1.2-9.1-3.5c-2.3-2.3-3.5-5.4-3.5-9.1c0-3.7,1.2-6.8,3.5-9.2c2.3-2.4,5.4-3.6,9.1-3.6c3.7,0,6.8,1.2,9.1,3.6
		c2.3,2.4,3.5,5.4,3.5,9.2C178.5,139.2,177.3,142.3,175,144.6"/>
	<path id="path100" class="st0" d="M534.7,168.5L534.7,168.5l-36.9-51.7l36.7-42.8c0.1-0.1,0.1-0.2,0.1-0.3c0-0.2-0.2-0.4-0.4-0.4
		h-3.5c-0.1,0-0.3,0.1-0.3,0.2l-50.5,58.9V73.7c0-0.2-0.2-0.4-0.4-0.4h-2.6c-0.2,0-0.4,0.2-0.4,0.4v95.1c0,0.2,0.2,0.4,0.4,0.4h2.6
		c0.2,0,0.4-0.2,0.4-0.4v-31.2l15.6-18l35.2,49.4c0.1,0.1,0.2,0.2,0.4,0.2h3.3c0.2,0,0.4-0.2,0.4-0.4
		C534.8,168.6,534.8,168.6,534.7,168.5"/>
	<path id="path102" class="st0" d="M454.3,73.2h-2.7c-0.2,0-0.4,0.2-0.4,0.4v87l-62.9-87.3c-0.1-0.1-0.2-0.2-0.3-0.2h-1.7
		c-0.2,0-0.4,0.2-0.4,0.4v95.1c0,0.2,0.2,0.4,0.4,0.4h2.7c0.2,0,0.4-0.2,0.4-0.4V81l63.4,88c0.1,0.1,0.2,0.2,0.4,0.2h1.2
		c0.2,0,0.4-0.2,0.4-0.4V73.7C454.8,73.4,454.6,73.2,454.3,73.2"/>
	<path id="path104" class="st0" d="M370.1,168.6L334,73.5c-0.1-0.2-0.2-0.3-0.4-0.3h-1.7c-0.2,0-0.3,0.1-0.4,0.3l-36.1,95.1
		c0,0,0,0.1,0,0.2c0,0.2,0.2,0.4,0.4,0.4h2.8c0.2,0,0.3-0.1,0.4-0.3l11.1-29.4h45.2l11.1,29.4c0.1,0.2,0.2,0.3,0.4,0.3h2.8
		c0.2,0,0.4-0.2,0.4-0.4C370.1,168.7,370.1,168.6,370.1,168.6 M311.4,135.9l21.3-55.9l21.3,55.9H311.4z"/>
</g>
</svg>
